<svg id="mermaid-1622350755325" width="100%" xmlns="http://www.w3.org/2000/svg" xmlns:xlink="http://www.w3.org/1999/xlink" height="341.578125" style="max-width: 541.953125px;" viewBox="-20 -20 541.953125 341.578125"><style>#mermaid-1622350755325{font-family:"trebuchet ms",verdana,arial,sans-serif;font-size:16px;fill:#333;}#mermaid-1622350755325 .error-icon{fill:#552222;}#mermaid-1622350755325 .error-text{fill:#552222;stroke:#552222;}#mermaid-1622350755325 .edge-thickness-normal{stroke-width:2px;}#mermaid-1622350755325 .edge-thickness-thick{stroke-width:3.5px;}#mermaid-1622350755325 .edge-pattern-solid{stroke-dasharray:0;}#mermaid-1622350755325 .edge-pattern-dashed{stroke-dasharray:3;}#mermaid-1622350755325 .edge-pattern-dotted{stroke-dasharray:2;}#mermaid-1622350755325 .marker{fill:#333333;stroke:#333333;}#mermaid-1622350755325 .marker.cross{stroke:#333333;}#mermaid-1622350755325 svg{font-family:"trebuchet ms",verdana,arial,sans-serif;font-size:16px;}#mermaid-1622350755325 g.classGroup text{fill:#9370DB;fill:#131300;stroke:none;font-family:"trebuchet ms",verdana,arial,sans-serif;font-size:10px;}#mermaid-1622350755325 g.classGroup text .title{font-weight:bolder;}#mermaid-1622350755325 .classTitle{font-weight:bolder;}#mermaid-1622350755325 .node rect,#mermaid-1622350755325 .node circle,#mermaid-1622350755325 .node ellipse,#mermaid-1622350755325 .node polygon,#mermaid-1622350755325 .node path{fill:#ECECFF;stroke:#9370DB;stroke-width:1px;}#mermaid-1622350755325 .divider{stroke:#9370DB;stroke:1;}#mermaid-1622350755325 g.clickable{cursor:pointer;}#mermaid-1622350755325 g.classGroup rect{fill:#ECECFF;stroke:#9370DB;}#mermaid-1622350755325 g.classGroup line{stroke:#9370DB;stroke-width:1;}#mermaid-1622350755325 .classLabel .box{stroke:none;stroke-width:0;fill:#ECECFF;opacity:0.5;}#mermaid-1622350755325 .classLabel .label{fill:#9370DB;font-size:10px;}#mermaid-1622350755325 .relation{stroke:#333333;stroke-width:1;fill:none;}#mermaid-1622350755325 .dashed-line{stroke-dasharray:3;}#mermaid-1622350755325 #compositionStart,#mermaid-1622350755325 .composition{fill:#333333 !important;stroke:#333333 !important;stroke-width:1;}#mermaid-1622350755325 #compositionEnd,#mermaid-1622350755325 .composition{fill:#333333 !important;stroke:#333333 !important;stroke-width:1;}#mermaid-1622350755325 #dependencyStart,#mermaid-1622350755325 .dependency{fill:#333333 !important;stroke:#333333 !important;stroke-width:1;}#mermaid-1622350755325 #dependencyStart,#mermaid-1622350755325 .dependency{fill:#333333 !important;stroke:#333333 !important;stroke-width:1;}#mermaid-1622350755325 #extensionStart,#mermaid-1622350755325 .extension{fill:#333333 !important;stroke:#333333 !important;stroke-width:1;}#mermaid-1622350755325 #extensionEnd,#mermaid-1622350755325 .extension{fill:#333333 !important;stroke:#333333 !important;stroke-width:1;}#mermaid-1622350755325 #aggregationStart,#mermaid-1622350755325 .aggregation{fill:#ECECFF !important;stroke:#333333 !important;stroke-width:1;}#mermaid-1622350755325 #aggregationEnd,#mermaid-1622350755325 .aggregation{fill:#ECECFF !important;stroke:#333333 !important;stroke-width:1;}#mermaid-1622350755325 .edgeTerminals{font-size:11px;}#mermaid-1622350755325:root{--mermaid-font-family:"trebuchet ms",verdana,arial,sans-serif;}</style><g></g><defs><marker id="extensionStart" class="extension" refX="0" refY="7" markerWidth="190" markerHeight="240" orient="auto"><path d="M 1,7 L18,13 V 1 Z"></path></marker></defs><defs><marker id="extensionEnd" refX="19" refY="7" markerWidth="20" markerHeight="28" orient="auto"><path d="M 1,1 V 13 L18,7 Z"></path></marker></defs><defs><marker id="compositionStart" class="extension" refX="0" refY="7" markerWidth="190" markerHeight="240" orient="auto"><path d="M 18,7 L9,13 L1,7 L9,1 Z"></path></marker></defs><defs><marker id="compositionEnd" refX="19" refY="7" markerWidth="20" markerHeight="28" orient="auto"><path d="M 18,7 L9,13 L1,7 L9,1 Z"></path></marker></defs><defs><marker id="aggregationStart" class="extension" refX="0" refY="7" markerWidth="190" markerHeight="240" orient="auto"><path d="M 18,7 L9,13 L1,7 L9,1 Z"></path></marker></defs><defs><marker id="aggregationEnd" refX="19" refY="7" markerWidth="20" markerHeight="28" orient="auto"><path d="M 18,7 L9,13 L1,7 L9,1 Z"></path></marker></defs><defs><marker id="dependencyStart" class="extension" refX="0" refY="7" markerWidth="190" markerHeight="240" orient="auto"><path d="M 5,7 L9,13 L1,7 L9,1 Z"></path></marker></defs><defs><marker id="dependencyEnd" refX="19" refY="7" markerWidth="20" markerHeight="28" orient="auto"><path d="M 18,7 L9,13 L14,7 L9,1 Z"></path></marker></defs><g id="classid-FromEnvironment-1329" class="classGroup" transform="translate(216.2421875,0 )"><rect x="0" y="0" width="124.671875" height="63.859375" class=" "></rect><text y="15" x="0"><tspan x="5">«trait»</tspan><tspan class="title" dy="10" x="5">FromEnvironment</tspan></text><line x1="0" y1="31.625" y2="31.625" x2="124.671875"></line><text x="5" y="41.625" fill="white" class="classText"></text><line x1="0" y1="36.625" y2="36.625" x2="124.671875"></line><text x="5" y="51.625" fill="white" class="classText"><tspan x="5">+from_env()</tspan></text></g><g id="classid-DescFromEnvironment-1330" class="classGroup" transform="translate(9.0234375,118.859375 )"><rect x="0" y="0" width="146.265625" height="63.859375" class=" "></rect><text y="15" x="0"><tspan x="5">«trait»</tspan><tspan class="title" dy="10" x="5">DescFromEnvironment</tspan></text><line x1="0" y1="31.625" y2="31.625" x2="146.265625"></line><text x="5" y="41.625" fill="white" class="classText"></text><line x1="0" y1="36.625" y2="36.625" x2="146.265625"></line><text x="5" y="51.625" fill="white" class="classText"><tspan x="5">+key_desc()</tspan></text></g><g id="classid-AutoDeriveFromEnvironment-1331" class="classGroup" transform="translate(205.2890625,132.4765625 )"><rect x="0" y="0" width="146.578125" height="36.625" class=" "></rect><text y="15" x="0"><tspan class="title" x="5">AutoDeriveFromEnvironment</tspan></text><line x1="0" y1="21.625" y2="21.625" x2="146.578125"></line><text x="5" y="31.625" fill="white" class="classText"></text><line x1="0" y1="26.625" y2="26.625" x2="146.578125"></line><text x="5" y="41.625" fill="white" class="classText"></text></g><g id="classid-PrefixedFromEnvironment-1332" class="classGroup" transform="translate(0,237.71875 )"><rect x="0" y="0" width="164.3125" height="63.859375" class=" "></rect><text y="15" x="0"><tspan x="5">«trait»</tspan><tspan class="title" dy="10" x="5">PrefixedFromEnvironment</tspan></text><line x1="0" y1="31.625" y2="31.625" x2="164.3125"></line><text x="5" y="41.625" fill="white" class="classText"></text><line x1="0" y1="36.625" y2="36.625" x2="164.3125"></line><text x="5" y="51.625" fill="white" class="classText"><tspan x="5">+prefix()</tspan></text></g><g id="classid-IsProperty-1333" class="classGroup" transform="translate(401.8671875,113.859375 )"><rect x="0" y="0" width="92.71875" height="73.859375" class=" "></rect><text y="15" x="0"><tspan x="7.1328125">«trait»</tspan><tspan class="title" dy="10" x="7.125">IsProperty</tspan></text><line x1="0" y1="31.625" y2="31.625" x2="92.71875"></line><text x="5" y="41.625" fill="white" class="classText"></text><line x1="0" y1="36.625" y2="36.625" x2="92.71875"></line><text x="5" y="51.625" fill="white" class="classText"><tspan x="5">+from_property()</tspan><tspan x="5" dy="10">+is_empty()</tspan></text></g><g id="classid-EnumProperty-1334" class="classGroup" transform="translate(394.5,237.71875 )"><rect x="0" y="0" width="107.453125" height="63.859375" class=" "></rect><text y="15" x="0"><tspan x="5">«trait»</tspan><tspan class="title" dy="10" x="5">EnumProperty</tspan></text><line x1="0" y1="31.625" y2="31.625" x2="107.453125"></line><text x="5" y="41.625" fill="white" class="classText"></text><line x1="0" y1="36.625" y2="36.625" x2="107.453125"></line><text x="5" y="51.625" fill="white" class="classText"><tspan x="5">+str_to_enum()</tspan></text></g><path d="M216.2421875,49.99674567208257L193.89453125,56.473850560068804C171.546875,62.95095544805505,126.8515625,75.90516522402753,104.50390625,87.38227011201377C82.15625,98.859375,82.15625,108.859375,82.15625,113.859375L82.15625,118.859375" id="edge516" class="relation" marker-start="url(#extensionStart)"></path><path d="M278.578125,63.859375L278.578125,68.02604166666667C278.578125,72.19270833333333,278.578125,80.52604166666667,278.578125,91.96223958333333C278.578125,103.3984375,278.578125,117.9375,278.578125,125.20703125L278.578125,132.4765625" id="edge517" class="relation" marker-start="url(#extensionStart)"></path><path d="M82.15625,182.71875L82.15625,187.71875C82.15625,192.71875,82.15625,202.71875,82.15625,211.88541666666666C82.15625,221.05208333333334,82.15625,229.38541666666666,82.15625,233.55208333333334L82.15625,237.71875" id="edge518" class="relation" marker-start="url(#extensionStart)"></path><path d="M340.9140625,52.848037790697674L358.7994791666667,58.8499273255814C376.6848958333333,64.85181686046512,412.4557291666667,76.85559593023255,430.3411458333333,87.02415213178294C448.2265625,97.19270833333333,448.2265625,105.52604166666667,448.2265625,109.69270833333333L448.2265625,113.859375" id="edge519" class="relation dashed-line" marker-start="url(#extensionStart)"></path><path d="M448.2265625,187.71875L448.2265625,191.88541666666666C448.2265625,196.05208333333334,448.2265625,204.38541666666666,448.2265625,212.71875C448.2265625,221.05208333333334,448.2265625,229.38541666666666,448.2265625,233.55208333333334L448.2265625,237.71875" id="edge520" class="relation dashed-line" marker-start="url(#extensionStart)"></path></svg>