<svg id="graph-div" width="100%" xmlns="http://www.w3.org/2000/svg" xmlns:xlink="http://www.w3.org/1999/xlink" height="345.96875" style="max-width: 817.203125px;" viewBox="-20 -20 817.203125 345.96875"><style>#graph-div{font-family:"trebuchet ms",verdana,arial,sans-serif;font-size:16px;fill:#333;}#graph-div .error-icon{fill:#552222;}#graph-div .error-text{fill:#552222;stroke:#552222;}#graph-div .edge-thickness-normal{stroke-width:2px;}#graph-div .edge-thickness-thick{stroke-width:3.5px;}#graph-div .edge-pattern-solid{stroke-dasharray:0;}#graph-div .edge-pattern-dashed{stroke-dasharray:3;}#graph-div .edge-pattern-dotted{stroke-dasharray:2;}#graph-div .marker{fill:#333333;stroke:#333333;}#graph-div .marker.cross{stroke:#333333;}#graph-div svg{font-family:"trebuchet ms",verdana,arial,sans-serif;font-size:16px;}#graph-div g.classGroup text{fill:#9370DB;fill:#131300;stroke:none;font-family:"trebuchet ms",verdana,arial,sans-serif;font-size:10px;}#graph-div g.classGroup text .title{font-weight:bolder;}#graph-div .classTitle{font-weight:bolder;}#graph-div .node rect,#graph-div .node circle,#graph-div .node ellipse,#graph-div .node polygon,#graph-div .node path{fill:#ECECFF;stroke:#9370DB;stroke-width:1px;}#graph-div .divider{stroke:#9370DB;stroke:1;}#graph-div g.clickable{cursor:pointer;}#graph-div g.classGroup rect{fill:#ECECFF;stroke:#9370DB;}#graph-div g.classGroup line{stroke:#9370DB;stroke-width:1;}#graph-div .classLabel .box{stroke:none;stroke-width:0;fill:#ECECFF;opacity:0.5;}#graph-div .classLabel .label{fill:#9370DB;font-size:10px;}#graph-div .relation{stroke:#333333;stroke-width:1;fill:none;}#graph-div .dashed-line{stroke-dasharray:3;}#graph-div #compositionStart,#graph-div .composition{fill:#333333 !important;stroke:#333333 !important;stroke-width:1;}#graph-div #compositionEnd,#graph-div .composition{fill:#333333 !important;stroke:#333333 !important;stroke-width:1;}#graph-div #dependencyStart,#graph-div .dependency{fill:#333333 !important;stroke:#333333 !important;stroke-width:1;}#graph-div #dependencyStart,#graph-div .dependency{fill:#333333 !important;stroke:#333333 !important;stroke-width:1;}#graph-div #extensionStart,#graph-div .extension{fill:#333333 !important;stroke:#333333 !important;stroke-width:1;}#graph-div #extensionEnd,#graph-div .extension{fill:#333333 !important;stroke:#333333 !important;stroke-width:1;}#graph-div #aggregationStart,#graph-div .aggregation{fill:#ECECFF !important;stroke:#333333 !important;stroke-width:1;}#graph-div #aggregationEnd,#graph-div .aggregation{fill:#ECECFF !important;stroke:#333333 !important;stroke-width:1;}#graph-div .edgeTerminals{font-size:11px;}#graph-div:root{--mermaid-font-family:"trebuchet ms",verdana,arial,sans-serif;}</style><g></g><defs><marker id="extensionStart" class="extension" refX="0" refY="7" markerWidth="190" markerHeight="240" orient="auto"><path d="M 1,7 L18,13 V 1 Z"></path></marker></defs><defs><marker id="extensionEnd" refX="19" refY="7" markerWidth="20" markerHeight="28" orient="auto"><path d="M 1,1 V 13 L18,7 Z"></path></marker></defs><defs><marker id="compositionStart" class="extension" refX="0" refY="7" markerWidth="190" markerHeight="240" orient="auto"><path d="M 18,7 L9,13 L1,7 L9,1 Z"></path></marker></defs><defs><marker id="compositionEnd" refX="19" refY="7" markerWidth="20" markerHeight="28" orient="auto"><path d="M 18,7 L9,13 L1,7 L9,1 Z"></path></marker></defs><defs><marker id="aggregationStart" class="extension" refX="0" refY="7" markerWidth="190" markerHeight="240" orient="auto"><path d="M 18,7 L9,13 L1,7 L9,1 Z"></path></marker></defs><defs><marker id="aggregationEnd" refX="19" refY="7" markerWidth="20" markerHeight="28" orient="auto"><path d="M 18,7 L9,13 L1,7 L9,1 Z"></path></marker></defs><defs><marker id="dependencyStart" class="extension" refX="0" refY="7" markerWidth="190" markerHeight="240" orient="auto"><path d="M 5,7 L9,13 L1,7 L9,1 Z"></path></marker></defs><defs><marker id="dependencyEnd" refX="19" refY="7" markerWidth="20" markerHeight="28" orient="auto"><path d="M 18,7 L9,13 L14,7 L9,1 Z"></path></marker></defs><g id="classid-Environment-774" class="classGroup" transform="translate(0,10.8125 )"><rect x="0" y="0" width="100.3125" height="46.625" class=" "></rect><text y="15" x="0"><tspan x="5">«trait»</tspan><tspan class="title" dy="10" x="5">Environment</tspan></text><line x1="0" y1="31.625" y2="31.625" x2="100.3125"></line><text x="5" y="41.625" fill="white" class="classText"></text><line x1="0" y1="36.625" y2="36.625" x2="100.3125"></line><text x="5" y="51.625" fill="white" class="classText"></text></g><g id="classid-Factory-775" class="classGroup" transform="translate(12.1875,131.8671875 )"><rect x="0" y="0" width="75.9375" height="46.625" class=" "></rect><text y="15" x="0"><tspan x="5">«trait»</tspan><tspan class="title" dy="10" x="5">Factory</tspan></text><line x1="0" y1="31.625" y2="31.625" x2="75.9375"></line><text x="5" y="41.625" fill="white" class="classText"></text><line x1="0" y1="36.625" y2="36.625" x2="75.9375"></line><text x="5" y="51.625" fill="white" class="classText"></text></g><g id="classid-Resource-776" class="classGroup" transform="translate(150.3125,0 )"><rect x="0" y="0" width="93.25" height="68.25" class=" "></rect><text y="15" x="0"><tspan x="9.984375">«trait»</tspan><tspan class="title" dy="10" x="9.984375">Resource</tspan></text><line x1="0" y1="31.625" y2="31.625" x2="93.25"></line><text x="5" y="41.625" fill="white" class="classText"><tspan x="5">+type Config</tspan><tspan x="5" dy="10">+type Customizer</tspan></text><line x1="0" y1="58.25" y2="58.25" x2="93.25"></line><text x="5" y="73.25" fill="white" class="classText"></text></g><g id="classid-Service-777" class="classGroup" transform="translate(159.6015625,131.8671875 )"><rect x="0" y="0" width="74.671875" height="46.625" class=" "></rect><text y="15" x="0"><tspan x="5">«trait»</tspan><tspan class="title" dy="10" x="5">Service</tspan></text><line x1="0" y1="31.625" y2="31.625" x2="74.671875"></line><text x="5" y="41.625" fill="white" class="classText"></text><line x1="0" y1="36.625" y2="36.625" x2="74.671875"></line><text x="5" y="51.625" fill="white" class="classText"></text></g><g id="classid-FromEnvironment-778" class="classGroup" transform="translate(491.4921875,2.1953125 )"><rect x="0" y="0" width="124.671875" height="63.859375" class=" "></rect><text y="15" x="0"><tspan x="5">«trait»</tspan><tspan class="title" dy="10" x="5">FromEnvironment</tspan></text><line x1="0" y1="31.625" y2="31.625" x2="124.671875"></line><text x="5" y="41.625" fill="white" class="classText"></text><line x1="0" y1="36.625" y2="36.625" x2="124.671875"></line><text x="5" y="51.625" fill="white" class="classText"><tspan x="5">+from_env()</tspan></text></g><g id="classid-DescFromEnvironment-779" class="classGroup" transform="translate(284.2734375,123.25 )"><rect x="0" y="0" width="146.265625" height="63.859375" class=" "></rect><text y="15" x="0"><tspan x="5">«trait»</tspan><tspan class="title" dy="10" x="5">DescFromEnvironment</tspan></text><line x1="0" y1="31.625" y2="31.625" x2="146.265625"></line><text x="5" y="41.625" fill="white" class="classText"></text><line x1="0" y1="36.625" y2="36.625" x2="146.265625"></line><text x="5" y="51.625" fill="white" class="classText"><tspan x="5">+key_desc()</tspan></text></g><g id="classid-AutoDeriveFromEnvironment-780" class="classGroup" transform="translate(480.5390625,136.8671875 )"><rect x="0" y="0" width="146.578125" height="36.625" class=" "></rect><text y="15" x="0"><tspan class="title" x="5">AutoDeriveFromEnvironment</tspan></text><line x1="0" y1="21.625" y2="21.625" x2="146.578125"></line><text x="5" y="31.625" fill="white" class="classText"></text><line x1="0" y1="26.625" y2="26.625" x2="146.578125"></line><text x="5" y="41.625" fill="white" class="classText"></text></g><g id="classid-PrefixedFromEnvironment-781" class="classGroup" transform="translate(275.25,242.109375 )"><rect x="0" y="0" width="164.3125" height="63.859375" class=" "></rect><text y="15" x="0"><tspan x="5">«trait»</tspan><tspan class="title" dy="10" x="5">PrefixedFromEnvironment</tspan></text><line x1="0" y1="31.625" y2="31.625" x2="164.3125"></line><text x="5" y="41.625" fill="white" class="classText"></text><line x1="0" y1="36.625" y2="36.625" x2="164.3125"></line><text x="5" y="51.625" fill="white" class="classText"><tspan x="5">+prefix()</tspan></text></g><g id="classid-IsProperty-782" class="classGroup" transform="translate(677.1171875,118.25 )"><rect x="0" y="0" width="92.71875" height="73.859375" class=" "></rect><text y="15" x="0"><tspan x="7.1328125">«trait»</tspan><tspan class="title" dy="10" x="7.125">IsProperty</tspan></text><line x1="0" y1="31.625" y2="31.625" x2="92.71875"></line><text x="5" y="41.625" fill="white" class="classText"></text><line x1="0" y1="36.625" y2="36.625" x2="92.71875"></line><text x="5" y="51.625" fill="white" class="classText"><tspan x="5">+from_property()</tspan><tspan x="5" dy="10">+is_empty()</tspan></text></g><g id="classid-EnumProperty-783" class="classGroup" transform="translate(669.75,242.109375 )"><rect x="0" y="0" width="107.453125" height="63.859375" class=" "></rect><text y="15" x="0"><tspan x="5">«trait»</tspan><tspan class="title" dy="10" x="5">EnumProperty</tspan></text><line x1="0" y1="31.625" y2="31.625" x2="107.453125"></line><text x="5" y="41.625" fill="white" class="classText"></text><line x1="0" y1="36.625" y2="36.625" x2="107.453125"></line><text x="5" y="51.625" fill="white" class="classText"><tspan x="5">+str_to_enum()</tspan></text></g><path d="M50.15625,57.4375L50.15625,63.40625C50.15625,69.375,50.15625,81.3125,50.15625,93.71744791666667C50.15625,106.12239583333333,50.15625,118.99479166666667,50.15625,125.43098958333333L50.15625,131.8671875" id="edge530" class="relation" marker-start="url(#extensionStart)"></path><path d="M196.9375,68.25L196.9375,72.41666666666667C196.9375,76.58333333333333,196.9375,84.91666666666667,196.9375,95.51953125C196.9375,106.12239583333333,196.9375,118.99479166666667,196.9375,125.43098958333333L196.9375,131.8671875" id="edge531" class="relation dashed-line" marker-start="url(#extensionStart)"></path><path d="M491.4921875,52.88875686102935L469.14453125,59.61563071752446C446.796875,66.34250457401957,402.1015625,79.79625228700978,379.75390625,91.5231261435049C357.40625,103.25,357.40625,113.25,357.40625,118.25L357.40625,123.25" id="edge532" class="relation" marker-start="url(#extensionStart)"></path><path d="M553.828125,66.0546875L553.828125,70.58723958333333C553.828125,75.11979166666667,553.828125,84.18489583333333,553.828125,95.98697916666667C553.828125,107.7890625,553.828125,122.328125,553.828125,129.59765625L553.828125,136.8671875" id="edge533" class="relation" marker-start="url(#extensionStart)"></path><path d="M357.40625,187.109375L357.40625,192.109375C357.40625,197.109375,357.40625,207.109375,357.40625,216.27604166666666C357.40625,225.44270833333334,357.40625,233.77604166666666,357.40625,237.94270833333334L357.40625,242.109375" id="edge534" class="relation" marker-start="url(#extensionStart)"></path><path d="M616.1640625,55.85L634.0494791666666,62.083333333333336C651.9348958333334,68.31666666666666,687.7057291666666,80.78333333333333,705.5911458333334,91.18333333333334C723.4765625,101.58333333333333,723.4765625,109.91666666666667,723.4765625,114.08333333333333L723.4765625,118.25" id="edge535" class="relation dashed-line" marker-start="url(#extensionStart)"></path><path d="M723.4765625,192.109375L723.4765625,196.27604166666666C723.4765625,200.44270833333334,723.4765625,208.77604166666666,723.4765625,217.109375C723.4765625,225.44270833333334,723.4765625,233.77604166666666,723.4765625,237.94270833333334L723.4765625,242.109375" id="edge536" class="relation dashed-line" marker-start="url(#extensionStart)"></path></svg>